#N canvas -8 -8 1600 818 12;
#X obj 634 60 cnv 15 538 354 empty empty empty 20 12 0 14 -138431 -66577
0;
#X obj 642 134 hradio 15 1 0 16 empty squares empty 0 -8 0 10 -258113
-262144 -1 0;
#X obj 662 302 hsl 128 15 0 127 0 0 4th empty empty -2 -8 0 10 -4034
-1 -1 0 1;
#X obj 662 275 hsl 128 15 0 127 0 0 3rd empty empty -2 -8 0 10 -257985
-1 -1 0 1;
#X obj 662 247 hsl 128 15 0 127 0 0 2nd empty empty -2 -8 0 10 -257985
-1 -1 0 1;
#X obj 662 217 hsl 128 15 0 127 0 0 1st empty ARPEGGIO 5 -10 0 14 -257985
-45076 -262144 0 1;
#X obj 644 112 hsl 128 15 0 15 0 0 co2-- co2 OCTAVE 5 -10 0 12 -232576
-1 -1 847 1;
#X obj 77 59 metro 50;
#X obj 77 111 sel 1;
#X obj 642 79 hsl 128 15 1 12 0 0 co1-- co1 SPEED 5 -10 1 12 -232576
-1 -45076 3464 1;
#X obj 77 85 counter, f 11;
#X obj 77 138 counter, f 15;
#X obj 341 166 s co1;
#X obj 391 166 s co2;
#X obj 494 221 r notez;
#X obj 341 37 / 10.5;
#X obj 391 62 / 8.5;
#X obj 857 79 tgl 25 0 arp-sta empty ON/OFF 35 12 0 15 -262144 -1 -262144
0 1;
#X obj 841 79 cnv 15 15 25 empty empty empty 20 12 0 14 -260097 -66577
0;
#X obj 825 79 cnv 15 15 25 empty empty empty 20 12 0 14 -260097 -66577
0;
#X obj 57 349 f;
#X obj 57 319 f;
#X obj 57 289 f;
#X obj 57 259 f;
#X obj 66 405 f;
#X obj 66 435 f;
#X obj 100 435 + 12;
#X obj 66 465 f;
#X obj 66 495 f;
#X obj 100 495 + 12;
#X obj 100 465 + 12;
#X obj 100 405 + 12;
#X obj 136 535 f;
#X obj 136 565 f;
#X obj 136 595 f;
#X obj 136 625 f;
#X obj 170 535 + 24;
#X obj 170 565 + 24;
#X obj 170 595 + 24;
#X obj 170 625 + 24;
#X obj 206 655 f;
#X obj 206 685 f;
#X obj 206 715 f;
#X obj 206 745 f;
#X obj 240 655 + 36;
#X obj 240 685 + 36;
#X obj 240 715 + 36;
#X obj 240 745 + 36;
#X obj 341 11 r arp-spe;
#X obj 391 37 r arp-8ct;
#X obj 77 30 r arp-sta;
#X obj 151 56 r co1--;
#X obj 179 106 r co2--;
#X obj 97 177 s squares;
#X obj 408 245 r 1st;
#X obj 418 275 r 2nd;
#X obj 428 305 r 3rd;
#X obj 438 335 r 4th;
#X obj 494 248 unpack f f f f;
#X obj 77 211 sel 0 1 2 3 4 5 6 7 8 9 10 11 12 13 14 15;
#N canvas -8 -8 1600 818 MIDInotes 0;
#X msg 116 88 48 52 55 59;
#X text 77 88 C maj;
#X msg 126 158 50 54 57 61;
#X text 87 158 D maj;
#X text 77 238 E maj;
#X msg 116 238 52 56 59 63;
#X text 77 316 F maj;
#X msg 116 316 53 57 60 64;
#X text 87 398 G maj;
#X msg 126 398 55 59 62 66;
#X text 67 468 A maj;
#X msg 106 468 57 61 64 68;
#X text 77 558 B maj;
#X msg 116 558 59 63 66 70;
#X text 497 78 C min;
#X text 507 148 D min;
#X text 497 228 E min;
#X text 497 306 F min;
#X text 507 388 G min;
#X text 487 458 A min;
#X text 497 548 B min;
#X msg 536 78 48 51 55 58;
#X msg 546 148 50 53 57 60;
#X msg 536 228 52 55 59 62;
#X msg 536 306 53 56 60 63;
#X msg 546 388 55 58 62 65;
#X msg 526 458 57 60 64 67;
#X msg 536 548 59 62 66 69;
#X msg 343 108 49 53 56 60;
#X msg 353 178 51 55 58 62;
#X msg 343 336 54 58 61 65;
#X msg 353 418 56 60 63 67;
#X msg 333 488 58 62 65 69;
#X text 297 108 C# maj;
#X text 307 178 D# maj;
#X text 297 336 F# maj;
#X text 307 418 G# maj;
#X text 287 488 A# maj;
#X text 727 108 C# min;
#X text 737 178 D# min;
#X text 727 336 F# min;
#X text 737 418 G# min;
#X text 717 488 A# min;
#X msg 773 108 49 52 56 59;
#X msg 783 178 51 54 58 61;
#X msg 773 336 54 57 61 64;
#X msg 783 418 56 59 63 66;
#X msg 763 488 58 61 65 68;
#X obj 116 50 bng 20 250 50 0 empty Cmaj empty 17 7 0 10 -262144 -1
-1;
#X obj 536 43 bng 20 250 50 0 empty Cmin empty 17 7 0 10 -262144 -1
-1;
#X obj 343 71 bng 20 250 50 0 empty C#maj empty 17 7 0 10 -262144 -1
-1;
#X obj 773 73 bng 20 250 50 0 empty C#min empty 17 7 0 10 -262144 -1
-1;
#X obj 126 130 bng 20 250 50 0 empty Dmaj empty 17 7 0 10 -262144 -1
-1;
#X obj 546 115 bng 20 250 50 0 empty Dmin empty 17 7 0 10 -262144 -1
-1;
#X obj 353 147 bng 20 250 50 0 empty D#maj empty 17 7 0 10 -262144
-1 -1;
#X obj 783 145 bng 20 250 50 0 empty D#min empty 17 7 0 10 -262144
-1 -1;
#X obj 116 206 bng 20 250 50 0 empty Emaj empty 17 7 0 10 -262144 -1
-1;
#X obj 536 194 bng 20 250 50 0 empty Emin empty 17 7 0 10 -262144 -1
-1;
#X obj 116 283 bng 20 250 50 0 empty Fmaj empty 17 7 0 10 -262144 -1
-1;
#X obj 536 274 bng 20 250 50 0 empty Fmin empty 17 7 0 10 -262144 -1
-1;
#X obj 343 302 bng 20 250 50 0 empty F$maj empty 17 7 0 10 -262144
-1 -1;
#X obj 773 302 bng 20 250 50 0 empty F#min empty 17 7 0 10 -262144
-1 -1;
#X obj 126 362 bng 20 250 50 0 empty Gmaj empty 17 7 0 10 -262144 -1
-1;
#X obj 546 353 bng 20 250 50 0 empty Gmin empty 17 7 0 10 -262144 -1
-1;
#X obj 353 383 bng 20 250 50 0 empty G#maj empty 17 7 0 10 -262144
-1 -1;
#X obj 783 382 bng 20 250 50 0 empty G#min empty 17 7 0 10 -262144
-1 -1;
#X obj 106 437 bng 20 250 50 0 empty Amaj empty 17 7 0 10 -262144 -1
-1;
#X obj 526 421 bng 20 250 50 0 empty Amin empty 17 7 0 10 -262144 -1
-1;
#X obj 333 455 bng 20 250 50 0 empty A#maj empty 17 7 0 10 -262144
-1 -1;
#X obj 763 451 bng 20 250 50 0 empty A#min empty 17 7 0 10 -262144
-1 -1;
#X obj 116 521 bng 20 250 50 0 empty Bmaj empty 17 7 0 10 -262144 -1
-1;
#X obj 536 515 bng 20 250 50 0 empty Bmin empty 17 7 0 10 -262144 -1
-1;
#X obj 507 723 s notez;
#X obj 268 614 unpack f f f f;
#X obj 507 699 pack f f f f;
#X connect 0 0 73 0;
#X connect 2 0 73 0;
#X connect 5 0 73 0;
#X connect 7 0 73 0;
#X connect 9 0 73 0;
#X connect 11 0 73 0;
#X connect 13 0 73 0;
#X connect 21 0 73 0;
#X connect 22 0 73 0;
#X connect 23 0 73 0;
#X connect 24 0 73 0;
#X connect 25 0 73 0;
#X connect 26 0 73 0;
#X connect 27 0 73 0;
#X connect 28 0 73 0;
#X connect 29 0 73 0;
#X connect 30 0 73 0;
#X connect 31 0 73 0;
#X connect 32 0 73 0;
#X connect 43 0 73 0;
#X connect 44 0 73 0;
#X connect 45 0 73 0;
#X connect 46 0 73 0;
#X connect 47 0 73 0;
#X connect 48 0 0 0;
#X connect 49 0 21 0;
#X connect 50 0 28 0;
#X connect 51 0 43 0;
#X connect 52 0 2 0;
#X connect 53 0 22 0;
#X connect 54 0 29 0;
#X connect 55 0 44 0;
#X connect 56 0 5 0;
#X connect 57 0 23 0;
#X connect 58 0 7 0;
#X connect 59 0 24 0;
#X connect 60 0 30 0;
#X connect 61 0 45 0;
#X connect 62 0 9 0;
#X connect 63 0 25 0;
#X connect 64 0 31 0;
#X connect 65 0 46 0;
#X connect 66 0 11 0;
#X connect 67 0 26 0;
#X connect 68 0 32 0;
#X connect 69 0 47 0;
#X connect 70 0 13 0;
#X connect 71 0 27 0;
#X connect 73 0 74 0;
#X connect 73 1 74 1;
#X connect 73 2 74 2;
#X connect 73 3 74 3;
#X connect 74 0 72 0;
#X restore 183 177 pd MIDInotes;
#X obj 634 404 cnv 10 10 10 empty empty empty 20 12 0 14 -260183 -66577
0;
#X obj 589 14 loadbang;
#X msg 589 54 1;
#X msg 589 34 4;
#X text 843 479 Write me as an object into another patch.;
#X text 843 499 Then connect the orange blocks at the bottom to a [dac~].
;
#X obj 833 180 cnv 15 300 200 empty empty empty 20 12 0 14 -4034 -66577
0;
#X obj 880 188 bng 20 250 50 0 Cmaj empty empty 17 7 0 10 -262144 -1
-1;
#X text 841 188 C MAJ;
#X obj 950 188 bng 20 250 50 0 Cmin empty empty 17 7 0 10 -262144 -1
-1;
#X text 911 188 C Min;
#X obj 1027 198 bng 20 250 50 0 C#maj empty empty 17 7 0 10 -262144
-1 -1;
#X obj 1104 198 bng 20 250 50 0 C#min empty empty 17 7 0 10 -262144
-1 -1;
#X text 981 198 C# MAJ;
#X text 1058 198 C# Min;
#X obj 880 218 bng 20 250 50 0 Dmaj empty empty 17 7 0 10 -262144 -1
-1;
#X obj 950 218 bng 20 250 50 0 Dmin empty empty 17 7 0 10 -262144 -1
-1;
#X obj 1027 228 bng 20 250 50 0 D#maj empty empty 17 7 0 10 -262144
-1 -1;
#X obj 1104 228 bng 20 250 50 0 D#min empty empty 17 7 0 10 -262144
-1 -1;
#X text 841 218 D MAJ;
#X text 911 218 D Min;
#X text 981 228 D# MAJ;
#X text 1058 228 D# Min;
#X obj 880 246 bng 20 250 50 0 Emaj empty empty 17 7 0 10 -262144 -1
-1;
#X obj 950 246 bng 20 250 50 0 Emin empty empty 17 7 0 10 -262144 -1
-1;
#X text 841 246 E MAJ;
#X text 911 246 E Min;
#X obj 881 272 bng 20 250 50 0 Fmaj empty empty 17 7 0 10 -262144 -1
-1;
#X obj 951 272 bng 20 250 50 0 Fmin empty empty 17 7 0 10 -262144 -1
-1;
#X obj 1105 282 bng 20 250 50 0 F#min empty empty 17 7 0 10 -262144
-1 -1;
#X text 842 272 F MAJ;
#X text 912 272 F Min;
#X text 982 282 F# MAJ;
#X text 1059 282 F# Min;
#X obj 881 300 bng 20 250 50 0 Gmaj empty empty 17 7 0 10 -262144 -1
-1;
#X obj 951 300 bng 20 250 50 0 Gmin empty empty 17 7 0 10 -262144 -1
-1;
#X obj 1028 310 bng 20 250 50 0 G#maj empty empty 17 7 0 10 -262144
-1 -1;
#X obj 1105 310 bng 20 250 50 0 G#min empty empty 17 7 0 10 -262144
-1 -1;
#X text 842 300 G MAJ;
#X text 912 300 G Min;
#X text 982 310 G# MAJ;
#X text 1059 310 G# Min;
#X obj 882 328 bng 20 250 50 0 Amaj empty empty 17 7 0 10 -262144 -1
-1;
#X obj 952 328 bng 20 250 50 0 Amin empty empty 17 7 0 10 -262144 -1
-1;
#X obj 1029 338 bng 20 250 50 0 A#maj empty empty 17 7 0 10 -262144
-1 -1;
#X obj 1106 338 bng 20 250 50 0 A#min empty empty 17 7 0 10 -262144
-1 -1;
#X text 843 328 A MAJ;
#X text 913 328 A Min;
#X text 983 338 A# MAJ;
#X text 1060 338 A# Min;
#X obj 882 358 bng 20 250 50 0 Bmaj empty empty 17 7 0 10 -262144 -1
-1;
#X obj 952 358 bng 20 250 50 0 Bmin empty empty 17 7 0 10 -262144 -1
-1;
#X text 843 358 B MAJ;
#X text 913 358 B Min;
#X obj 525 479 t f f;
#X floatatom 510 332 5 0 0 0 - - -;
#X obj 1028 283 bng 20 250 50 0 F$maj empty empty 17 7 0 10 -262144
-1 -1;
#X floatatom 483 541 5 0 0 0 - - -;
#X floatatom 625 514 5 0 0 0 - - -;
#X obj 543 587 outlet;
#X connect 7 0 10 0;
#X connect 8 0 11 0;
#X connect 10 0 8 0;
#X connect 11 0 53 0;
#X connect 11 0 59 0;
#X connect 14 0 58 0;
#X connect 14 0 116 0;
#X connect 15 0 12 0;
#X connect 16 0 13 0;
#X connect 20 0 115 0;
#X connect 21 0 115 0;
#X connect 22 0 115 0;
#X connect 23 0 115 0;
#X connect 24 0 115 0;
#X connect 25 0 115 0;
#X connect 26 0 25 1;
#X connect 27 0 115 0;
#X connect 28 0 115 0;
#X connect 29 0 28 1;
#X connect 30 0 27 1;
#X connect 31 0 24 1;
#X connect 32 0 115 0;
#X connect 33 0 115 0;
#X connect 34 0 115 0;
#X connect 35 0 115 0;
#X connect 36 0 32 1;
#X connect 37 0 33 1;
#X connect 38 0 34 1;
#X connect 39 0 35 1;
#X connect 40 0 115 0;
#X connect 41 0 115 0;
#X connect 42 0 115 0;
#X connect 43 0 115 0;
#X connect 44 0 40 1;
#X connect 45 0 41 1;
#X connect 46 0 42 1;
#X connect 47 0 43 1;
#X connect 48 0 15 0;
#X connect 49 0 16 0;
#X connect 50 0 7 0;
#X connect 51 0 10 4;
#X connect 52 0 11 4;
#X connect 54 0 44 0;
#X connect 54 0 36 0;
#X connect 54 0 31 0;
#X connect 54 0 23 0;
#X connect 55 0 26 0;
#X connect 55 0 45 0;
#X connect 55 0 37 0;
#X connect 55 0 22 0;
#X connect 56 0 46 0;
#X connect 56 0 38 0;
#X connect 56 0 30 0;
#X connect 56 0 21 0;
#X connect 57 0 47 0;
#X connect 57 0 39 0;
#X connect 57 0 29 0;
#X connect 57 0 20 0;
#X connect 58 0 5 0;
#X connect 58 1 4 0;
#X connect 58 2 3 0;
#X connect 58 3 2 0;
#X connect 59 0 23 0;
#X connect 59 1 22 0;
#X connect 59 2 21 0;
#X connect 59 3 20 0;
#X connect 59 4 24 0;
#X connect 59 5 25 0;
#X connect 59 6 27 0;
#X connect 59 7 28 0;
#X connect 59 8 32 0;
#X connect 59 9 33 0;
#X connect 59 10 34 0;
#X connect 59 11 35 0;
#X connect 59 12 40 0;
#X connect 59 13 41 0;
#X connect 59 14 42 0;
#X connect 59 15 43 0;
#X connect 62 0 64 0;
#X connect 62 0 63 0;
#X connect 63 0 6 0;
#X connect 64 0 9 0;
#X connect 115 0 118 0;
#X connect 115 0 120 0;
#X connect 115 1 119 0;
#X coords 0 -1 1 1 540 356 1 633 59;
